<svg id="svg" xmlns="http://www.w3.org/2000/svg" xmlns:xlink="http://www.w3.org/1999/xlink" width="400" height="400" viewBox="0, 0, 400,400" version="1.1"><g id="svgg"><path id="path0" d="M304.867 109.865 C 304.424 110.658,214.232 110.767,212.755 109.976 C 212.016 109.580,211.998 111.476,211.920 198.586 C 211.876 247.544,211.831 288.264,211.820 289.075 C 211.802 290.393,211.931 290.583,213.033 290.869 C 214.286 291.193,214.726 292.301,213.839 292.894 C 213.598 293.056,214.030 293.188,214.800 293.188 C 215.570 293.188,215.993 293.056,215.740 292.894 C 215.062 292.461,214.918 291.112,215.526 290.899 C 215.821 290.797,216.150 291.087,216.273 291.558 C 216.431 292.161,216.811 292.400,217.613 292.400 C 218.229 292.400,218.804 292.612,218.890 292.871 C 219.122 293.565,220.000 292.876,220.000 292.000 C 220.000 290.907,220.815 290.572,221.074 291.560 C 221.194 292.022,221.617 292.400,222.013 292.400 C 222.409 292.400,222.825 292.625,222.936 292.900 C 223.093 293.285,223.229 293.272,223.529 292.842 C 223.822 292.423,224.351 292.361,225.659 292.593 C 229.210 293.223,230.203 293.237,229.395 292.646 C 228.954 292.323,228.769 291.858,228.922 291.458 C 229.274 290.543,230.000 290.633,230.000 291.592 C 230.000 292.446,231.387 293.013,232.668 292.682 C 233.083 292.575,232.837 292.473,232.100 292.446 C 229.966 292.370,230.384 291.200,232.545 291.200 C 234.190 291.200,234.278 291.257,234.098 292.200 C 233.943 293.012,234.066 293.200,234.753 293.200 C 235.219 293.200,235.600 293.020,235.600 292.800 C 235.600 292.580,236.230 292.400,237.000 292.400 C 237.770 292.400,238.400 292.580,238.400 292.800 C 238.400 293.020,238.805 293.186,239.300 293.168 C 239.795 293.151,239.975 293.046,239.700 292.935 C 239.425 292.824,239.200 292.279,239.200 291.724 C 239.200 290.968,239.359 290.775,239.833 290.957 C 240.181 291.091,240.535 291.200,240.620 291.200 C 240.705 291.200,240.671 291.470,240.545 291.800 C 240.376 292.239,240.595 292.400,241.357 292.400 C 241.931 292.400,242.400 292.552,242.400 292.738 C 242.400 292.925,243.092 293.077,243.938 293.077 C 245.315 293.077,245.466 292.978,245.373 292.138 C 245.293 291.404,245.458 291.207,246.135 291.232 C 246.611 291.249,246.776 291.353,246.503 291.464 C 245.632 291.816,246.661 293.162,247.611 292.913 C 248.364 292.716,248.380 292.641,247.802 292.002 C 247.043 291.164,248.698 290.640,250.785 291.057 C 251.437 291.187,252.427 291.180,252.985 291.039 L 254.000 290.785 254.000 256.434 L 254.000 222.084 255.700 221.904 C 260.819 221.363,278.728 221.636,278.967 222.259 C 279.122 222.662,279.504 222.814,280.025 222.678 C 280.949 222.436,282.461 223.911,284.790 227.326 C 285.569 228.467,287.278 230.840,288.589 232.600 C 289.899 234.360,291.608 236.714,292.386 237.832 C 294.366 240.676,302.846 252.590,304.608 255.000 C 307.858 259.449,312.887 266.370,314.882 269.140 C 316.047 270.757,318.125 273.608,319.500 275.476 C 320.875 277.344,322.000 278.959,322.000 279.066 C 322.000 279.172,322.961 280.551,324.135 282.130 C 325.310 283.708,326.836 285.810,327.527 286.800 C 330.102 290.488,330.544 290.853,332.844 291.187 C 334.030 291.359,334.672 291.523,334.271 291.550 C 333.871 291.578,333.251 291.892,332.893 292.249 C 332.294 292.849,332.374 292.887,333.922 292.739 C 334.845 292.651,335.600 292.719,335.600 292.889 C 335.600 293.316,338.869 293.271,339.558 292.834 C 339.865 292.640,340.006 292.193,339.871 291.840 C 339.697 291.387,339.855 291.200,340.413 291.200 C 341.299 291.200,341.531 292.600,340.700 292.935 C 340.401 293.056,340.482 293.150,340.900 293.168 C 341.285 293.186,341.600 293.020,341.600 292.800 C 341.600 292.580,342.041 292.400,342.580 292.400 C 343.119 292.400,343.704 292.161,343.880 291.870 C 344.574 290.719,346.800 290.668,346.800 291.803 C 346.800 292.127,347.469 292.373,348.600 292.463 C 350.249 292.594,350.468 292.505,350.366 291.745 C 350.314 291.357,351.318 290.826,351.681 291.050 C 352.274 291.417,352.005 292.740,351.300 292.924 C 350.915 293.025,351.590 293.099,352.800 293.090 C 354.058 293.080,354.443 293.003,353.700 292.911 C 352.528 292.765,351.677 291.281,352.700 291.167 C 355.606 290.842,356.200 291.001,356.184 292.100 C 356.167 293.283,358.923 293.830,359.294 292.717 C 359.490 292.130,364.530 292.189,364.727 292.781 C 364.807 293.021,365.138 292.996,365.589 292.714 C 365.991 292.463,366.229 292.019,366.117 291.729 C 365.981 291.374,366.257 291.200,366.957 291.200 C 367.596 291.200,368.000 291.422,368.000 291.773 C 368.000 292.433,369.576 293.055,369.950 292.543 C 370.319 292.038,371.200 291.937,371.200 292.400 C 371.200 292.620,370.990 292.800,370.733 292.800 C 370.477 292.800,370.343 292.876,370.436 292.969 C 370.529 293.063,371.234 292.991,372.003 292.810 C 372.950 292.588,373.110 292.469,372.500 292.441 C 372.005 292.418,371.600 292.200,371.600 291.955 C 371.600 291.686,371.117 291.580,370.382 291.688 C 369.713 291.786,369.072 291.717,368.959 291.533 C 368.845 291.350,369.753 291.200,370.976 291.200 C 372.199 291.200,373.200 291.380,373.200 291.600 C 373.200 291.820,373.515 291.997,373.900 291.994 C 374.436 291.989,374.475 291.909,374.066 291.650 C 373.382 291.216,374.344 290.800,376.033 290.800 C 377.534 290.800,377.504 290.347,375.880 288.501 C 374.487 286.917,371.262 282.614,368.462 278.600 C 366.206 275.366,364.197 272.625,362.233 270.101 C 360.402 267.747,356.323 262.286,351.702 256.000 C 350.003 253.690,348.251 251.312,347.807 250.716 C 347.363 250.120,345.920 248.163,344.600 246.367 C 343.280 244.572,341.440 242.090,340.510 240.852 C 339.581 239.613,338.338 237.884,337.748 237.009 C 337.158 236.134,336.427 235.170,336.123 234.866 C 335.820 234.563,334.866 233.299,334.003 232.057 C 333.140 230.816,331.085 228.000,329.436 225.800 C 322.950 217.146,321.950 215.449,323.100 215.051 C 326.121 214.006,327.511 213.611,328.200 213.604 C 328.640 213.599,329.450 213.363,330.000 213.080 C 330.550 212.796,332.184 212.167,333.630 211.681 C 341.247 209.125,350.941 202.003,356.530 194.859 C 367.345 181.033,369.208 156.626,360.758 139.469 C 355.763 129.328,346.078 120.221,335.988 116.179 C 334.565 115.608,333.220 114.914,333.000 114.636 C 332.780 114.357,332.371 114.207,332.090 114.302 C 331.662 114.446,330.020 114.004,326.800 112.879 C 326.470 112.763,325.750 112.628,325.200 112.577 C 324.650 112.527,323.033 112.218,321.606 111.891 C 320.180 111.564,318.783 111.385,318.501 111.493 C 318.220 111.601,317.698 111.448,317.342 111.152 C 316.857 110.749,315.449 110.645,311.753 110.736 C 306.364 110.869,305.118 110.679,305.463 109.780 C 305.769 108.984,305.325 109.047,304.867 109.865 M114.389 110.015 C 114.065 110.220,110.830 110.410,107.200 110.437 C 100.131 110.489,88.278 111.026,85.000 111.442 C 83.900 111.582,82.055 111.720,80.900 111.748 C 79.745 111.777,78.800 111.955,78.800 112.145 C 78.800 112.335,78.260 112.412,77.600 112.315 C 76.940 112.218,76.400 112.285,76.400 112.464 C 76.400 112.889,74.195 113.800,72.317 114.152 C 71.501 114.305,70.331 114.692,69.717 115.012 C 69.103 115.333,68.397 115.596,68.149 115.598 C 67.900 115.599,66.233 116.410,64.443 117.400 C 62.653 118.390,61.071 119.200,60.926 119.200 C 60.781 119.200,60.379 119.456,60.031 119.768 C 59.684 120.081,59.168 120.396,58.885 120.468 C 58.602 120.541,57.522 121.381,56.485 122.335 C 55.448 123.290,54.151 124.370,53.601 124.735 C 53.052 125.101,52.062 125.999,51.401 126.732 C 50.741 127.464,49.837 128.466,49.392 128.958 C 32.864 147.254,33.094 179.983,49.882 198.579 C 51.713 200.608,52.257 201.455,51.895 201.717 C 51.563 201.957,51.645 201.996,52.143 201.834 C 52.640 201.672,53.363 202.012,54.331 202.862 C 59.880 207.734,70.009 212.657,78.140 214.434 C 79.428 214.715,80.565 215.165,80.669 215.434 C 80.911 216.065,74.808 224.817,68.979 232.200 C 67.763 233.740,65.399 236.890,63.726 239.200 C 62.053 241.510,59.938 244.390,59.027 245.600 C 58.116 246.810,57.107 248.177,56.785 248.639 C 55.523 250.447,48.652 259.701,44.082 265.748 C 40.211 270.869,38.204 273.581,36.938 275.400 C 36.326 276.280,35.187 277.810,34.408 278.800 C 33.629 279.790,32.370 281.500,31.610 282.600 C 30.850 283.700,30.042 284.793,29.814 285.029 C 29.586 285.265,28.950 286.119,28.400 286.926 C 27.400 288.394,26.665 288.753,26.200 288.000 C 26.064 287.780,25.773 287.600,25.553 287.600 C 25.333 287.600,25.292 287.825,25.462 288.100 C 25.632 288.375,25.777 289.115,25.785 289.744 L 25.800 290.888 35.362 290.944 C 44.555 290.998,44.928 291.030,45.039 291.790 C 45.103 292.225,44.941 292.717,44.678 292.884 C 44.415 293.051,44.920 293.176,45.800 293.162 C 46.680 293.148,47.175 293.046,46.900 292.935 C 46.234 292.666,46.234 290.678,46.900 290.900 C 47.175 290.992,47.416 291.232,47.435 291.433 C 47.573 292.899,49.200 293.975,49.200 292.600 C 49.200 291.924,50.219 291.783,50.604 292.407 C 50.742 292.630,51.023 292.709,51.228 292.583 C 51.432 292.456,51.600 292.543,51.600 292.776 C 51.600 293.370,52.690 293.307,52.936 292.700 C 53.091 292.319,53.234 292.336,53.539 292.774 C 53.845 293.213,54.069 293.241,54.492 292.890 C 55.245 292.265,60.513 292.138,60.713 292.740 C 61.162 294.085,65.108 293.088,65.720 291.475 C 66.024 290.670,66.800 290.920,66.800 291.824 C 66.800 292.141,67.070 292.400,67.400 292.400 C 67.730 292.400,68.000 292.580,68.000 292.800 C 68.000 293.020,68.270 293.200,68.600 293.200 C 68.930 293.200,69.200 293.040,69.200 292.843 C 69.200 292.647,69.695 292.355,70.300 292.194 C 70.932 292.026,71.173 291.818,70.867 291.706 C 70.517 291.578,70.733 291.269,71.496 290.804 C 72.136 290.416,73.507 288.951,74.544 287.549 C 77.632 283.373,78.574 282.106,83.725 275.200 C 86.433 271.570,89.310 267.565,90.119 266.300 C 90.928 265.035,91.772 264.000,91.995 264.000 C 92.218 264.000,92.400 263.827,92.400 263.615 C 92.400 263.403,93.215 262.098,94.210 260.715 C 95.206 259.332,96.741 257.167,97.622 255.905 C 98.503 254.642,99.554 253.292,99.958 252.905 C 100.362 252.517,101.164 251.480,101.740 250.600 C 102.316 249.720,103.511 248.010,104.396 246.800 C 105.281 245.590,106.719 243.610,107.591 242.400 C 108.463 241.190,110.170 238.850,111.383 237.200 C 112.597 235.550,114.234 233.300,115.021 232.200 C 115.808 231.100,116.989 229.480,117.645 228.600 C 118.301 227.720,119.457 226.067,120.214 224.926 C 121.787 222.558,122.076 222.328,123.769 222.104 C 125.879 221.826,147.919 221.786,148.193 222.060 C 148.336 222.203,148.475 237.656,148.500 256.401 C 148.533 280.135,148.676 290.527,148.973 290.633 C 149.208 290.716,150.930 290.833,152.800 290.892 L 156.200 291.000 156.184 292.100 C 156.169 293.131,156.276 293.200,157.874 293.200 C 159.522 293.200,159.567 293.166,159.205 292.214 C 158.963 291.577,158.973 291.140,159.233 290.980 C 159.627 290.736,165.545 290.815,166.062 291.071 C 166.633 291.353,165.868 292.765,165.059 292.923 C 164.487 293.035,164.634 293.109,165.500 293.146 C 166.215 293.175,166.800 293.020,166.800 292.800 C 166.800 292.272,169.253 292.288,170.666 292.825 C 171.455 293.125,171.825 293.125,171.925 292.825 C 172.128 292.216,175.889 292.283,176.121 292.900 C 176.251 293.246,176.503 293.154,176.941 292.600 C 177.508 291.884,177.576 291.874,177.587 292.500 C 177.596 293.005,177.906 293.187,178.700 293.154 C 179.377 293.125,179.531 293.037,179.100 292.924 C 178.087 292.660,178.192 291.200,179.224 291.200 C 179.677 291.200,179.936 291.380,179.800 291.600 C 179.425 292.207,179.979 292.078,180.657 291.400 C 181.655 290.402,183.200 290.624,183.200 291.767 C 183.200 292.298,182.975 292.824,182.700 292.935 C 182.401 293.056,182.482 293.150,182.900 293.168 C 183.285 293.186,183.600 293.041,183.600 292.847 C 183.600 292.652,183.978 292.394,184.440 292.274 C 184.902 292.153,185.165 291.867,185.024 291.639 C 184.765 291.221,185.658 290.912,187.713 290.710 L 188.826 290.600 188.811 200.818 C 188.801 144.932,188.652 110.892,188.417 110.657 C 188.190 110.430,182.529 110.312,174.319 110.361 C 134.527 110.601,115.516 110.512,115.252 110.084 C 115.075 109.798,114.771 109.774,114.389 110.015 M189.951 111.410 C 189.731 112.324,189.876 129.210,190.105 129.439 C 190.640 129.974,191.665 128.469,191.269 127.730 C 191.032 127.286,190.977 126.760,191.147 126.561 C 191.318 126.363,191.376 125.210,191.277 124.000 C 191.144 122.381,191.011 122.011,190.776 122.600 C 190.469 123.368,190.455 123.365,190.428 122.524 C 190.413 122.042,190.580 121.536,190.800 121.400 C 191.020 121.264,191.200 120.713,191.200 120.176 C 191.200 119.639,191.020 119.200,190.800 119.200 C 190.580 119.200,190.413 118.615,190.428 117.900 C 190.452 116.811,190.512 116.730,190.800 117.400 C 191.078 118.046,191.149 117.917,191.172 116.733 C 191.187 115.926,191.321 114.951,191.468 114.567 C 191.639 114.123,191.581 113.964,191.310 114.132 C 191.076 114.277,190.775 114.112,190.642 113.765 C 190.311 112.901,190.338 112.714,190.758 112.974 C 190.954 113.095,191.089 112.763,191.058 112.236 C 191.026 111.708,190.880 111.351,190.734 111.441 C 190.588 111.531,190.395 111.384,190.304 111.113 C 190.213 110.840,190.056 110.973,189.951 111.410 M48.980 126.485 C 48.556 126.988,48.370 127.267,48.567 127.103 C 48.765 126.940,49.152 126.994,49.428 127.223 C 50.090 127.772,50.569 127.031,50.097 126.188 C 49.800 125.658,49.642 125.700,48.980 126.485 M47.221 128.360 C 46.928 128.909,46.952 129.173,47.307 129.309 C 47.612 129.426,47.800 129.136,47.800 128.549 C 47.800 127.402,47.744 127.384,47.221 128.360 M189.888 132.938 C 189.936 134.512,190.007 137.510,190.045 139.600 C 190.083 141.690,190.195 142.860,190.293 142.200 C 190.391 141.540,190.680 140.740,190.935 140.423 C 191.293 139.979,191.288 139.914,190.912 140.139 C 190.381 140.458,190.482 137.638,191.034 136.745 C 191.215 136.452,191.150 136.384,190.862 136.562 C 190.572 136.741,190.400 136.552,190.400 136.057 C 190.400 135.622,190.623 135.192,190.895 135.102 C 191.289 134.970,191.289 134.714,190.895 133.849 C 190.623 133.252,190.400 132.241,190.400 131.605 C 190.400 130.968,190.265 130.364,190.100 130.262 C 189.935 130.160,189.840 131.364,189.888 132.938 M189.960 143.951 C 189.938 144.198,189.920 144.850,189.920 145.400 C 189.920 153.145,189.965 153.534,190.832 153.307 C 191.450 153.146,191.606 152.872,191.438 152.245 C 191.313 151.780,191.208 150.984,191.205 150.476 C 191.202 149.964,191.022 149.663,190.800 149.800 C 190.233 150.150,190.303 149.464,190.900 148.821 C 191.300 148.390,191.300 148.339,190.900 148.565 C 190.239 148.938,190.222 147.138,190.880 146.480 C 191.253 146.107,191.253 146.000,190.880 146.000 C 190.616 146.000,190.400 145.719,190.400 145.376 C 190.400 145.033,190.580 144.864,190.800 145.000 C 191.433 145.391,191.265 144.552,190.600 144.000 C 190.181 143.652,189.988 143.638,189.960 143.951 M147.875 144.904 C 148.831 145.860,148.691 187.598,147.730 188.301 C 146.336 189.320,95.162 188.655,93.800 187.600 C 93.580 187.430,92.642 187.165,91.715 187.013 C 87.205 186.269,82.045 180.234,80.391 173.766 C 79.196 169.091,79.343 157.966,80.574 159.957 C 80.724 160.201,81.152 160.389,81.524 160.375 C 82.014 160.356,81.952 160.250,81.300 159.988 C 79.632 159.317,80.615 155.273,83.338 151.600 C 86.414 147.453,89.509 145.746,95.400 144.946 C 101.784 144.079,147.014 144.043,147.875 144.904 M303.600 144.645 C 304.150 144.783,305.707 144.863,307.060 144.822 C 308.451 144.780,309.635 144.933,309.784 145.174 C 309.929 145.408,310.423 145.600,310.883 145.600 C 313.768 145.600,319.385 150.050,321.180 153.758 C 324.212 160.023,324.441 175.843,321.463 173.329 C 320.607 172.606,320.606 172.607,321.300 173.431 C 323.817 176.421,317.871 184.627,311.487 186.973 C 309.967 187.532,309.453 187.576,308.987 187.189 C 308.515 186.797,308.400 186.821,308.400 187.312 C 308.400 188.341,305.373 188.483,279.800 188.656 L 255.400 188.820 254.700 187.966 C 254.090 187.221,253.507 145.210,254.100 144.717 C 254.693 144.223,301.656 144.154,303.600 144.645 M258.650 145.119 C 258.334 145.631,259.067 146.529,259.555 146.228 C 260.197 145.831,260.102 144.800,259.424 144.800 C 259.107 144.800,258.758 144.944,258.650 145.119 M255.407 153.900 C 255.507 161.258,255.502 161.211,256.076 160.221 C 256.340 159.767,256.372 159.391,256.153 159.318 C 255.933 159.244,255.843 156.952,255.935 153.796 C 256.030 150.544,255.942 148.400,255.713 148.400 C 255.487 148.400,255.363 150.641,255.407 153.900 M36.099 154.791 C 35.412 155.890,35.474 156.183,36.232 155.425 C 36.580 155.077,36.804 154.613,36.731 154.392 C 36.657 154.172,36.373 154.351,36.099 154.791 M190.000 155.267 C 190.000 155.890,189.995 156.524,189.989 156.675 C 189.983 156.826,190.208 156.983,190.489 157.023 C 190.817 157.069,191.020 156.564,191.056 155.614 C 191.095 154.590,190.941 154.133,190.556 154.133 C 190.212 154.133,190.000 154.566,190.000 155.267 M366.969 157.650 C 366.796 157.931,366.856 158.219,367.107 158.302 C 367.353 158.384,367.469 158.677,367.363 158.952 C 367.258 159.227,367.350 159.890,367.569 160.426 C 367.895 161.223,367.941 161.050,367.821 159.470 C 367.659 157.351,367.442 156.885,366.969 157.650 M189.913 158.800 C 189.667 160.385,189.947 161.195,190.438 160.317 C 190.619 159.995,190.623 159.207,190.449 158.566 L 190.131 157.400 189.913 158.800 M321.618 159.966 C 321.309 160.544,321.303 160.800,321.598 160.800 C 322.083 160.800,322.612 159.678,322.282 159.348 C 322.162 159.229,321.864 159.507,321.618 159.966 M35.274 161.472 C 35.343 162.058,35.670 162.611,36.000 162.700 C 36.513 162.837,36.517 162.803,36.026 162.461 C 35.571 162.144,35.552 161.940,35.936 161.477 C 36.323 161.010,36.293 160.845,35.784 160.649 C 35.284 160.457,35.174 160.634,35.274 161.472 M189.813 162.691 C 189.681 163.217,189.695 164.298,189.844 165.093 L 190.115 166.538 190.583 165.169 C 190.880 164.302,190.914 163.617,190.677 163.300 C 190.416 162.952,190.496 162.800,190.938 162.800 C 191.304 162.800,191.488 162.573,191.370 162.267 C 191.036 161.397,190.072 161.659,189.813 162.691 M255.574 162.900 C 255.411 166.107,255.451 167.708,255.700 167.862 C 255.865 167.964,256.000 166.777,256.000 165.224 C 256.000 162.915,255.667 161.094,255.574 162.900 M35.443 165.033 C 35.109 165.902,35.138 166.800,35.500 166.799 C 35.665 166.799,35.819 166.259,35.843 165.599 C 35.891 164.248,35.796 164.113,35.443 165.033 M190.046 169.300 C 190.007 171.253,190.106 171.595,190.700 171.568 C 191.118 171.550,191.199 171.456,190.900 171.335 C 190.625 171.224,190.400 170.803,190.400 170.400 C 190.400 169.997,190.625 169.575,190.900 169.464 C 191.266 169.315,191.279 169.173,190.946 168.930 C 190.697 168.749,190.403 168.240,190.293 167.800 C 190.183 167.360,190.072 168.035,190.046 169.300 M80.994 170.517 C 80.678 171.291,80.924 171.769,81.521 171.542 C 81.726 171.464,81.756 171.040,81.589 170.600 C 81.306 169.854,81.266 169.848,80.994 170.517 M321.200 170.767 C 321.200 171.258,321.458 171.600,321.829 171.600 C 322.202 171.600,322.406 171.328,322.329 170.933 C 322.135 169.930,321.200 169.792,321.200 170.767 M366.908 170.780 C 366.953 171.369,367.093 171.455,367.484 171.131 C 368.169 170.562,368.140 170.000,367.425 170.000 C 367.101 170.000,366.875 170.341,366.908 170.780 M255.579 171.033 C 255.330 175.312,255.412 186.748,255.689 186.471 C 256.055 186.105,256.152 171.218,255.790 170.857 C 255.686 170.752,255.590 170.832,255.579 171.033 M190.001 174.200 C 189.967 175.300,189.887 176.470,189.824 176.800 C 189.761 177.130,189.852 177.760,190.027 178.200 C 190.243 178.745,190.353 178.279,190.372 176.733 C 190.389 175.318,190.588 174.390,190.900 174.264 C 191.256 174.119,191.273 173.966,190.960 173.730 C 190.718 173.549,190.417 173.130,190.292 172.800 C 190.166 172.470,190.035 173.100,190.001 174.200 M37.200 180.576 C 37.200 181.139,37.380 181.600,37.600 181.600 C 37.820 181.600,38.000 181.251,38.000 180.824 C 38.000 180.397,37.820 179.936,37.600 179.800 C 37.373 179.660,37.200 179.996,37.200 180.576 M190.007 182.200 C 189.924 182.647,189.920 184.245,189.987 190.450 C 190.013 192.787,190.005 194.857,189.969 195.050 C 189.536 197.418,190.072 204.475,190.626 203.685 C 190.970 203.194,191.142 202.449,191.009 202.029 C 190.876 201.610,190.938 201.162,191.146 201.033 C 191.354 200.905,191.431 200.441,191.317 200.004 C 191.203 199.567,190.950 199.308,190.755 199.428 C 190.560 199.549,190.413 199.052,190.428 198.324 C 190.452 197.221,190.514 197.133,190.800 197.800 C 191.107 198.514,191.147 198.485,191.172 197.524 C 191.187 196.932,191.017 196.334,190.793 196.196 C 190.570 196.058,190.524 195.732,190.691 195.472 C 191.332 194.476,191.443 188.083,190.829 187.469 C 190.593 187.233,190.403 186.851,190.406 186.620 C 190.409 186.389,190.587 186.470,190.800 186.800 C 191.033 187.161,191.190 187.210,191.194 186.924 C 191.197 186.662,191.013 186.331,190.784 186.190 C 190.555 186.048,190.457 185.633,190.566 185.266 C 190.675 184.900,190.611 183.970,190.423 183.200 C 190.235 182.430,190.048 181.980,190.007 182.200 M190.031 208.971 C 189.961 212.759,190.699 214.768,190.960 211.500 C 190.982 211.225,191.180 210.851,191.400 210.670 C 191.661 210.454,191.634 210.271,191.322 210.144 C 191.060 210.036,190.944 209.690,191.065 209.374 C 191.187 209.057,191.053 208.800,190.766 208.800 C 190.457 208.800,190.562 208.562,191.024 208.213 C 191.451 207.890,191.613 207.620,191.385 207.613 C 191.157 207.606,190.941 207.213,190.905 206.740 C 190.703 204.057,190.094 205.612,190.031 208.971 M190.122 216.600 C 190.125 218.580,190.001 220.751,189.848 221.424 C 189.695 222.098,189.745 223.088,189.960 223.624 L 190.349 224.600 190.437 223.600 C 190.485 223.050,190.487 222.179,190.441 221.664 C 190.391 221.095,190.524 220.829,190.779 220.987 C 191.011 221.130,191.200 221.067,191.200 220.847 C 191.200 220.627,191.020 220.336,190.799 220.199 C 190.539 220.039,190.533 219.699,190.780 219.237 C 191.039 218.753,191.009 218.369,190.685 218.045 C 190.314 217.674,190.328 217.492,190.746 217.233 C 191.160 216.978,191.172 216.830,190.800 216.600 C 190.428 216.370,190.441 216.218,190.857 215.950 C 191.253 215.695,191.276 215.519,190.940 215.300 C 190.688 215.135,190.399 214.550,190.299 214.000 C 190.200 213.450,190.120 214.620,190.122 216.600 M124.705 223.883 C 125.202 223.979,125.922 223.975,126.305 223.875 C 126.687 223.775,126.280 223.696,125.400 223.701 C 124.520 223.705,124.207 223.787,124.705 223.883 M145.200 223.906 C 145.200 224.331,146.059 225.200,146.480 225.200 C 147.101 225.200,146.790 224.423,146.000 224.000 C 145.560 223.765,145.200 223.722,145.200 223.906 M262.311 223.893 C 263.251 223.978,264.691 223.977,265.511 223.891 C 266.330 223.805,265.560 223.736,263.800 223.737 C 262.040 223.739,261.370 223.809,262.311 223.893 M190.414 225.174 C 190.186 225.599,190.013 226.634,190.028 227.474 C 190.050 228.676,190.127 228.830,190.390 228.200 C 190.574 227.760,190.632 226.995,190.519 226.500 C 190.406 226.005,190.483 225.600,190.690 225.600 C 190.897 225.600,191.067 225.330,191.067 225.000 C 191.067 224.202,190.912 224.244,190.414 225.174 M332.142 227.434 C 332.079 228.489,332.584 228.741,332.933 227.829 C 333.054 227.515,332.938 227.081,332.676 226.864 C 332.332 226.578,332.184 226.736,332.142 227.434 M190.166 234.000 C 190.187 236.575,190.355 238.166,190.600 238.112 C 191.182 237.985,191.336 236.008,190.840 235.035 C 190.606 234.576,190.352 233.210,190.274 232.000 C 190.196 230.790,190.148 231.690,190.166 234.000 M65.675 233.625 C 65.771 233.914,66.086 234.229,66.375 234.325 C 66.675 234.425,66.825 234.275,66.725 233.975 C 66.629 233.686,66.314 233.371,66.025 233.275 C 65.725 233.175,65.575 233.325,65.675 233.625 M255.742 236.600 C 255.741 238.580,255.808 239.440,255.892 238.512 C 255.976 237.584,255.977 235.964,255.895 234.912 C 255.812 233.860,255.743 234.620,255.742 236.600 M190.007 239.400 C 189.951 239.840,189.942 240.380,189.987 240.600 C 190.032 240.820,190.076 242.398,190.084 244.107 C 190.098 247.192,190.533 248.511,190.901 246.586 C 191.006 246.033,190.944 245.489,190.762 245.376 C 190.580 245.264,190.604 244.716,190.815 244.160 C 191.306 242.870,191.299 242.428,190.800 243.200 C 190.486 243.685,190.411 243.628,190.406 242.900 C 190.403 242.405,190.550 242.000,190.733 242.000 C 190.917 242.000,191.067 241.453,191.067 240.784 C 191.067 240.090,190.939 239.775,190.770 240.049 C 190.578 240.360,190.408 240.189,190.291 239.565 C 190.138 238.752,190.093 238.726,190.007 239.400 M255.600 249.400 C 255.600 253.103,255.688 256.045,255.797 255.937 C 256.073 255.660,256.102 243.168,255.826 242.893 C 255.702 242.768,255.600 245.697,255.600 249.400 M190.000 252.400 C 190.000 254.702,190.102 255.136,190.600 254.945 C 191.273 254.687,191.418 254.000,190.800 254.000 C 190.264 254.000,190.287 251.073,190.827 250.533 C 191.129 250.231,191.071 250.036,190.627 249.866 C 190.095 249.661,190.000 250.045,190.000 252.400 M255.714 258.600 C 255.717 259.700,255.795 260.103,255.887 259.495 C 255.979 258.886,255.977 257.986,255.882 257.495 C 255.787 257.003,255.711 257.500,255.714 258.600 M190.256 259.700 C 189.951 261.419,190.096 262.667,190.600 262.667 C 190.879 262.667,191.083 262.264,191.054 261.772 C 191.024 261.279,190.865 260.960,190.700 261.062 C 190.535 261.164,190.400 260.877,190.400 260.424 C 190.400 259.971,190.580 259.600,190.800 259.600 C 191.020 259.600,191.200 259.420,191.200 259.200 C 191.200 258.404,190.411 258.822,190.256 259.700 M189.909 264.200 C 189.650 265.504,189.821 265.962,190.346 265.373 C 190.529 265.168,190.559 264.550,190.413 264.000 C 190.149 263.004,190.147 263.004,189.909 264.200 M189.971 266.700 C 189.955 267.085,189.951 268.750,189.962 270.400 C 189.997 275.657,189.935 287.756,189.866 289.000 C 189.830 289.660,189.960 290.230,190.155 290.266 C 190.351 290.302,190.663 290.572,190.849 290.866 C 191.092 291.249,191.189 291.146,191.194 290.500 C 191.197 290.005,191.020 289.600,190.800 289.600 C 190.580 289.600,190.400 289.150,190.400 288.600 C 190.400 288.050,190.555 287.600,190.744 287.600 C 190.933 287.600,191.122 286.160,191.164 284.400 C 191.213 282.379,191.087 281.200,190.821 281.200 C 190.589 281.200,190.400 280.919,190.400 280.576 C 190.400 280.233,190.580 280.064,190.800 280.200 C 191.038 280.347,191.200 279.871,191.200 279.024 C 191.200 278.241,191.020 277.600,190.800 277.600 C 190.580 277.600,190.400 277.330,190.400 277.000 C 190.400 276.670,190.580 276.400,190.800 276.400 C 191.311 276.400,191.326 274.525,190.817 274.211 C 190.607 274.081,190.536 273.711,190.659 273.389 C 190.783 273.068,191.000 272.877,191.142 272.965 C 191.284 273.054,191.342 271.523,191.272 269.563 C 191.172 266.801,191.015 266.000,190.572 266.000 C 190.257 266.000,189.987 266.315,189.971 266.700 M311.200 267.729 C 311.200 268.051,311.470 268.418,311.800 268.545 C 312.130 268.671,312.400 268.678,312.400 268.559 C 312.400 268.440,312.130 268.073,311.800 267.743 C 311.280 267.222,311.200 267.221,311.200 267.729 M255.701 273.800 C 255.705 274.680,255.787 274.993,255.883 274.495 C 255.979 273.998,255.975 273.278,255.875 272.895 C 255.775 272.513,255.696 272.920,255.701 273.800 M255.709 284.000 C 255.709 284.990,255.787 285.395,255.882 284.900 C 255.978 284.405,255.978 283.595,255.882 283.100 C 255.787 282.605,255.709 283.010,255.709 284.000 M255.731 289.000 C 255.733 290.540,255.805 291.121,255.892 290.291 C 255.979 289.461,255.977 288.201,255.889 287.491 C 255.800 286.781,255.729 287.460,255.731 289.000 M378.586 290.491 C 378.596 291.352,378.811 291.754,379.300 291.826 C 379.784 291.897,379.998 291.662,379.994 291.065 C 379.989 290.360,379.916 290.311,379.600 290.800 C 379.285 291.288,379.211 291.236,379.206 290.524 C 379.203 290.042,379.059 289.560,378.886 289.453 C 378.714 289.347,378.579 289.814,378.586 290.491 M63.800 291.805 C 63.800 292.325,63.488 292.644,62.900 292.728 C 62.008 292.855,61.595 291.739,62.280 291.053 C 62.811 290.522,63.800 291.012,63.800 291.805 M171.200 291.800 C 171.200 292.130,171.020 292.400,170.800 292.400 C 170.580 292.400,170.400 292.130,170.400 291.800 C 170.400 291.470,170.580 291.200,170.800 291.200 C 171.020 291.200,171.200 291.470,171.200 291.800 M147.422 291.964 C 147.226 292.282,147.316 292.628,147.649 292.839 C 148.318 293.262,149.191 293.315,148.560 292.894 C 148.318 292.732,148.036 292.339,147.933 292.020 C 147.783 291.552,147.683 291.541,147.422 291.964 " stroke="none" fill="#BFFF00" fill-rule="evenodd"></path><path id="path1" d="M92.033 108.828 C 87.981 109.000,84.291 109.263,83.833 109.412 C 83.375 109.560,82.010 109.838,80.800 110.030 C 79.590 110.221,78.240 110.462,77.800 110.565 C 71.446 112.051,64.400 114.522,64.400 115.264 C 64.400 115.449,64.062 115.600,63.649 115.600 C 63.236 115.600,62.674 115.870,62.400 116.200 C 62.126 116.530,61.693 116.800,61.438 116.800 C 59.996 116.800,51.600 123.171,51.600 124.265 C 51.600 124.585,51.440 124.749,51.245 124.628 C 50.703 124.293,49.878 125.506,50.157 126.231 C 50.506 127.141,50.047 127.737,49.407 127.206 C 48.715 126.632,47.465 127.839,47.724 128.830 C 47.850 129.313,47.733 129.472,47.357 129.328 C 47.053 129.212,46.913 128.910,47.046 128.658 C 47.179 128.406,46.822 128.740,46.254 129.400 C 45.685 130.060,45.005 131.064,44.743 131.631 C 44.480 132.198,43.728 132.971,43.070 133.349 C 42.173 133.863,41.989 134.149,42.332 134.492 C 42.675 134.835,42.645 135.109,42.211 135.588 C 41.403 136.481,39.596 140.663,39.891 140.957 C 40.024 141.091,39.952 141.200,39.730 141.200 C 39.402 141.200,38.327 143.820,38.226 144.867 C 38.212 145.013,38.077 145.256,37.928 145.406 C 37.778 145.556,37.752 145.931,37.870 146.239 C 37.989 146.548,37.916 146.800,37.709 146.800 C 37.503 146.800,37.324 147.025,37.313 147.300 C 37.302 147.575,37.185 148.250,37.053 148.800 C 36.329 151.806,35.953 154.113,35.749 156.800 C 35.624 158.450,35.437 159.936,35.335 160.103 C 35.233 160.269,35.428 160.513,35.769 160.643 C 36.320 160.855,36.322 160.975,35.794 161.730 C 35.467 162.196,35.203 163.213,35.206 163.989 C 35.210 164.913,35.329 165.216,35.550 164.867 C 35.774 164.515,35.874 164.752,35.844 165.566 C 35.820 166.244,35.665 166.799,35.500 166.799 C 35.335 166.800,35.200 166.991,35.200 167.224 C 35.200 167.457,35.335 167.564,35.500 167.463 C 35.665 167.362,35.794 168.386,35.786 169.739 C 35.778 171.093,36.022 173.370,36.327 174.800 C 36.633 176.230,36.915 177.784,36.954 178.254 C 36.993 178.723,37.225 179.353,37.468 179.654 C 37.711 179.954,38.036 181.136,38.190 182.280 C 38.344 183.424,38.722 184.569,39.030 184.825 C 39.339 185.081,39.488 185.458,39.361 185.663 C 39.235 185.868,39.306 186.252,39.519 186.518 C 39.732 186.783,40.750 188.665,41.780 190.700 C 42.810 192.735,43.800 194.400,43.980 194.400 C 44.160 194.400,44.412 194.802,44.540 195.293 C 44.725 196.001,44.876 196.084,45.267 195.693 C 45.538 195.422,45.949 195.203,46.180 195.206 C 46.411 195.209,46.368 195.359,46.084 195.539 C 43.380 197.255,57.937 209.471,67.115 213.187 C 68.812 213.874,70.650 214.643,71.200 214.896 C 72.189 215.351,72.954 215.538,74.697 215.751 C 75.191 215.811,75.716 215.982,75.864 216.130 C 76.012 216.279,76.566 216.400,77.094 216.400 L 78.054 216.400 77.227 217.562 C 76.772 218.201,76.400 219.021,76.400 219.385 C 76.400 219.749,76.238 219.947,76.041 219.825 C 75.843 219.703,75.085 220.532,74.357 221.667 C 73.628 222.802,72.665 224.138,72.216 224.635 C 70.842 226.157,69.600 227.906,69.600 228.320 C 69.600 228.537,69.330 228.818,69.000 228.945 C 68.670 229.071,68.400 229.436,68.400 229.754 C 68.400 230.073,68.258 230.393,68.086 230.467 C 67.229 230.830,66.052 233.092,66.491 233.531 C 67.143 234.183,66.539 234.613,65.814 234.012 C 65.316 233.598,65.160 233.641,64.925 234.255 C 64.769 234.665,64.227 235.448,63.721 235.996 C 63.214 236.544,62.800 237.129,62.800 237.296 C 62.800 237.463,62.485 237.947,62.100 238.371 C 61.014 239.568,60.652 240.039,57.736 244.049 C 56.236 246.112,54.869 247.980,54.699 248.200 C 52.440 251.127,52.049 251.755,52.268 252.109 C 52.408 252.337,52.361 252.428,52.162 252.312 C 51.736 252.063,46.667 258.619,46.667 259.419 C 46.667 259.719,46.505 259.865,46.306 259.742 C 46.108 259.620,45.847 259.898,45.726 260.360 C 45.606 260.822,45.386 261.200,45.239 261.200 C 44.956 261.200,42.000 265.027,42.000 265.393 C 42.000 265.511,41.560 266.100,41.023 266.703 C 40.486 267.307,40.036 267.935,40.023 268.100 C 39.988 268.557,38.253 270.200,37.805 270.200 C 37.588 270.200,37.345 270.560,37.265 271.000 C 37.184 271.440,36.678 272.385,36.139 273.100 C 35.600 273.815,35.238 274.400,35.334 274.400 C 35.429 274.400,34.907 275.056,34.173 275.857 C 33.439 276.659,32.851 277.424,32.866 277.557 C 32.958 278.343,32.747 278.814,32.400 278.600 C 32.180 278.464,32.000 278.515,32.000 278.714 C 32.000 278.913,31.547 279.599,30.993 280.238 C 30.438 280.877,29.494 282.120,28.894 283.000 C 28.293 283.880,27.706 284.690,27.587 284.800 C 26.362 285.940,25.642 287.369,26.047 287.857 C 26.765 288.721,27.329 288.498,28.400 286.926 C 28.950 286.119,29.586 285.265,29.814 285.029 C 30.042 284.793,30.850 283.700,31.610 282.600 C 32.370 281.500,33.629 279.790,34.408 278.800 C 35.187 277.810,36.326 276.280,36.938 275.400 C 38.204 273.581,40.211 270.869,44.082 265.748 C 48.652 259.701,55.523 250.447,56.785 248.639 C 57.107 248.177,58.116 246.810,59.027 245.600 C 59.938 244.390,62.053 241.510,63.726 239.200 C 65.399 236.890,67.763 233.740,68.979 232.200 C 74.808 224.817,80.911 216.065,80.669 215.434 C 80.565 215.165,79.428 214.715,78.140 214.434 C 70.009 212.657,59.880 207.734,54.331 202.862 C 53.363 202.012,52.640 201.672,52.143 201.834 C 51.645 201.996,51.563 201.957,51.895 201.717 C 52.257 201.455,51.713 200.608,49.882 198.579 C 33.094 179.983,32.864 147.254,49.392 128.958 C 49.837 128.466,50.741 127.464,51.401 126.732 C 52.062 125.999,53.052 125.101,53.601 124.735 C 54.151 124.370,55.448 123.290,56.485 122.335 C 57.522 121.381,58.602 120.541,58.885 120.468 C 59.168 120.396,59.684 120.081,60.031 119.768 C 60.379 119.456,60.781 119.200,60.926 119.200 C 61.071 119.200,62.653 118.390,64.443 117.400 C 66.233 116.410,67.900 115.599,68.149 115.598 C 68.397 115.596,69.103 115.333,69.717 115.012 C 70.331 114.692,71.501 114.305,72.317 114.152 C 74.195 113.800,76.400 112.889,76.400 112.464 C 76.400 112.285,76.940 112.218,77.600 112.315 C 78.260 112.412,78.800 112.335,78.800 112.145 C 78.800 111.955,79.745 111.777,80.900 111.748 C 82.055 111.720,83.900 111.582,85.000 111.442 C 88.278 111.026,100.131 110.489,107.200 110.437 C 110.830 110.410,114.065 110.220,114.389 110.015 C 114.771 109.774,115.075 109.798,115.252 110.084 C 115.516 110.512,134.527 110.601,174.319 110.361 C 182.529 110.312,188.190 110.430,188.417 110.657 C 188.652 110.892,188.801 144.932,188.811 200.818 L 188.826 290.600 187.713 290.710 C 185.658 290.912,184.765 291.221,185.024 291.639 C 185.165 291.867,184.902 292.153,184.440 292.274 C 182.713 292.725,183.697 293.127,186.606 293.157 C 189.086 293.182,189.750 293.050,190.397 292.403 C 191.194 291.606,191.105 290.353,190.262 290.513 C 189.974 290.567,189.825 290.072,189.866 289.200 C 189.935 287.743,189.997 275.618,189.962 270.400 C 189.931 265.772,189.910 265.883,190.767 266.107 C 191.444 266.284,191.511 266.137,191.333 264.854 C 191.050 262.807,190.859 262.316,190.445 262.572 C 190.069 262.804,189.975 261.275,190.265 259.664 C 190.383 259.008,190.622 258.799,191.061 258.968 C 191.516 259.143,191.622 259.033,191.445 258.572 C 191.310 258.221,191.200 257.210,191.200 256.324 C 191.200 255.058,191.072 254.763,190.600 254.945 C 190.102 255.136,190.000 254.702,190.000 252.400 C 190.000 250.098,190.102 249.664,190.600 249.855 C 190.990 250.005,191.200 249.845,191.200 249.400 C 191.200 248.955,190.990 248.795,190.600 248.945 C 190.270 249.071,190.000 249.001,190.000 248.787 C 190.000 248.574,190.270 248.400,190.600 248.400 C 191.018 248.400,191.188 248.007,191.160 247.100 C 191.123 245.905,191.098 245.880,190.843 246.796 C 190.405 248.368,190.104 247.260,190.081 243.989 C 190.069 242.333,190.025 240.803,189.982 240.589 C 189.687 239.096,190.113 238.819,190.600 240.187 C 190.932 241.119,191.012 241.869,190.794 242.003 C 190.369 242.267,190.535 245.080,191.002 245.513 C 191.173 245.671,191.213 245.146,191.089 244.347 C 190.962 243.523,191.054 242.706,191.302 242.458 C 191.614 242.146,191.616 241.754,191.311 241.083 C 191.076 240.567,190.977 239.655,191.091 239.056 C 191.242 238.268,191.148 237.999,190.750 238.083 C 190.312 238.176,190.193 237.341,190.168 234.000 C 190.151 231.690,190.205 230.880,190.290 232.200 C 190.556 236.354,191.103 235.457,191.127 230.827 C 191.139 228.387,191.263 226.032,191.402 225.595 C 191.551 225.123,191.471 224.800,191.203 224.800 C 190.956 224.800,190.864 224.980,191.000 225.200 C 191.136 225.420,191.037 225.600,190.780 225.600 C 190.502 225.600,190.396 225.963,190.519 226.500 C 190.632 226.995,190.574 227.760,190.390 228.200 C 190.132 228.819,190.050 228.632,190.028 227.376 C 190.013 226.484,190.264 225.404,190.587 224.976 C 191.268 224.077,191.398 221.369,190.779 220.987 C 190.524 220.829,190.391 221.095,190.441 221.664 C 190.487 222.179,190.485 223.050,190.437 223.600 L 190.349 224.600 189.960 223.624 C 189.745 223.088,189.695 222.098,189.848 221.424 C 190.001 220.751,190.125 218.580,190.122 216.600 C 190.120 214.620,190.200 213.450,190.299 214.000 C 190.399 214.550,190.688 215.135,190.940 215.300 C 191.276 215.519,191.253 215.695,190.857 215.950 C 190.508 216.175,190.462 216.391,190.728 216.556 C 191.353 216.942,191.571 215.617,191.217 213.600 C 191.043 212.610,190.878 212.025,190.850 212.300 C 190.823 212.575,190.611 212.800,190.380 212.800 C 190.111 212.800,189.986 211.434,190.031 209.008 C 190.086 206.046,190.800 203.536,190.800 206.304 C 190.800 206.781,190.920 206.840,191.240 206.520 C 191.508 206.252,191.555 205.714,191.361 205.140 C 191.186 204.623,191.083 203.930,191.132 203.600 C 191.196 203.176,191.043 203.228,190.611 203.776 C 190.073 204.461,189.549 197.345,189.969 195.050 C 190.005 194.858,190.011 192.788,189.985 190.450 C 189.958 188.113,189.927 185.338,189.917 184.285 C 189.906 183.231,190.011 182.256,190.149 182.118 C 190.393 181.874,190.494 182.719,190.565 185.600 C 190.584 186.370,190.780 187.000,191.000 187.000 C 191.220 187.000,191.368 186.640,191.328 186.200 C 191.288 185.760,191.223 182.925,191.182 179.900 C 191.111 174.629,190.430 171.940,190.372 176.700 C 190.353 178.262,190.242 178.743,190.027 178.200 C 189.852 177.760,189.761 177.130,189.824 176.800 C 189.887 176.470,189.973 175.300,190.016 174.200 C 190.058 173.100,190.175 172.515,190.276 172.900 C 190.464 173.622,191.200 173.886,191.200 173.233 C 191.200 173.031,191.309 172.581,191.443 172.233 C 191.617 171.779,191.447 171.600,190.843 171.600 C 190.077 171.600,190.005 171.389,190.054 169.300 C 190.084 168.035,190.187 167.405,190.282 167.900 C 190.565 169.369,191.199 168.924,191.137 167.300 C 191.105 166.475,191.209 165.395,191.367 164.900 C 191.545 164.341,191.489 164.000,191.217 164.000 C 190.977 164.000,190.663 164.585,190.519 165.300 L 190.259 166.600 189.920 165.400 C 189.499 163.907,189.871 161.579,190.511 161.706 C 191.018 161.806,191.677 157.494,191.186 157.286 C 191.038 157.223,190.977 156.683,191.051 156.086 C 191.171 155.118,191.153 155.100,190.893 155.924 C 190.642 156.714,190.000 157.201,190.000 156.600 C 190.000 156.490,190.000 155.860,190.000 155.200 C 190.000 154.519,190.194 154.043,190.450 154.100 C 190.697 154.155,190.992 153.946,191.105 153.636 C 191.246 153.246,191.108 153.150,190.655 153.324 C 190.080 153.544,189.995 153.136,189.960 149.987 C 189.882 142.986,189.837 143.367,190.665 144.051 C 191.273 144.552,191.308 144.455,191.065 142.924 C 190.916 141.986,190.965 141.145,191.177 141.014 C 191.385 140.886,191.473 139.930,191.372 138.890 C 191.270 137.851,191.188 136.595,191.189 136.100 C 191.190 135.605,191.040 135.200,190.856 135.200 C 190.672 135.200,190.537 136.355,190.555 137.766 C 190.576 139.386,190.737 140.242,190.994 140.089 C 191.217 139.955,191.191 140.106,190.935 140.423 C 190.680 140.740,190.391 141.540,190.293 142.200 C 190.195 142.860,190.083 141.690,190.045 139.600 C 190.007 137.510,189.936 134.504,189.888 132.920 C 189.794 129.857,190.159 129.481,190.509 132.280 C 190.642 133.351,190.552 134.029,190.259 134.149 C 189.928 134.284,189.926 134.346,190.251 134.368 C 191.107 134.428,191.453 133.394,191.286 131.273 C 191.159 129.657,190.984 129.197,190.560 129.360 C 190.252 129.478,189.994 129.446,189.987 129.287 C 189.848 126.322,189.811 111.995,189.941 111.451 C 190.102 110.772,190.169 110.791,190.651 111.651 C 191.156 112.552,191.174 112.523,191.008 111.088 C 190.678 108.227,194.471 108.440,144.550 108.478 C 119.718 108.498,96.085 108.655,92.033 108.828 M210.486 108.962 C 210.011 109.691,209.942 291.544,210.416 292.430 C 210.837 293.217,212.932 293.501,213.839 292.894 C 214.726 292.301,214.286 291.193,213.033 290.869 C 211.931 290.583,211.802 290.393,211.820 289.075 C 211.831 288.264,211.876 247.544,211.920 198.586 C 211.998 111.476,212.016 109.580,212.755 109.976 C 214.392 110.852,304.322 110.647,305.041 109.765 C 305.557 109.133,305.628 109.118,305.453 109.680 C 305.137 110.692,306.212 110.872,311.753 110.736 C 315.449 110.645,316.857 110.749,317.342 111.152 C 317.698 111.448,318.220 111.601,318.501 111.493 C 318.783 111.385,320.180 111.564,321.606 111.891 C 323.033 112.218,324.650 112.527,325.200 112.577 C 325.750 112.628,326.470 112.763,326.800 112.879 C 330.020 114.004,331.662 114.446,332.090 114.302 C 332.371 114.207,332.780 114.357,333.000 114.636 C 333.220 114.914,334.565 115.608,335.988 116.179 C 346.078 120.221,355.763 129.328,360.758 139.469 C 369.208 156.626,367.345 181.033,356.530 194.859 C 350.941 202.003,341.247 209.125,333.630 211.681 C 332.184 212.167,330.550 212.796,330.000 213.080 C 329.450 213.363,328.640 213.599,328.200 213.604 C 327.511 213.611,326.121 214.006,323.100 215.051 C 321.950 215.449,322.950 217.146,329.436 225.800 C 331.085 228.000,333.140 230.816,334.003 232.057 C 334.866 233.299,335.820 234.563,336.123 234.866 C 336.427 235.170,337.158 236.134,337.748 237.009 C 338.338 237.884,339.581 239.613,340.510 240.852 C 341.440 242.090,343.280 244.572,344.600 246.367 C 345.920 248.163,347.363 250.120,347.807 250.716 C 348.251 251.312,350.003 253.690,351.702 256.000 C 356.323 262.286,360.402 267.747,362.233 270.101 C 364.197 272.625,366.206 275.366,368.462 278.600 C 371.262 282.614,374.487 286.917,375.880 288.501 C 377.504 290.347,377.534 290.800,376.033 290.800 C 374.344 290.800,373.382 291.216,374.066 291.650 C 374.475 291.909,374.436 291.989,373.900 291.994 C 373.515 291.997,373.200 291.820,373.200 291.600 C 373.200 291.380,372.199 291.200,370.976 291.200 C 369.753 291.200,368.845 291.350,368.959 291.533 C 369.072 291.717,369.713 291.786,370.382 291.688 C 371.076 291.586,371.600 291.689,371.600 291.927 C 371.600 292.156,372.005 292.422,372.500 292.518 C 373.272 292.666,373.243 292.699,372.300 292.746 C 371.695 292.775,371.200 292.620,371.200 292.400 C 371.200 291.937,370.319 292.038,369.950 292.543 C 369.576 293.055,368.000 292.433,368.000 291.773 C 368.000 291.424,367.597 291.200,366.967 291.200 C 366.317 291.200,365.996 291.386,366.102 291.700 C 366.194 291.975,365.995 292.403,365.659 292.650 C 365.199 292.989,366.819 293.088,372.218 293.050 C 378.747 293.005,379.401 292.936,379.526 292.290 C 379.608 291.862,379.451 291.623,379.131 291.690 C 378.767 291.765,378.600 291.346,378.600 290.359 C 378.600 288.979,375.159 283.680,373.226 282.083 C 372.882 281.798,372.645 281.438,372.700 281.283 C 372.755 281.127,372.575 281.000,372.300 280.999 C 372.025 280.998,371.799 280.668,371.797 280.265 C 371.796 279.861,371.446 279.277,371.021 278.966 C 370.595 278.655,370.399 278.400,370.585 278.400 C 370.770 278.400,370.507 278.040,370.000 277.600 C 369.493 277.160,369.210 276.800,369.372 276.800 C 369.535 276.800,369.069 276.035,368.337 275.100 C 367.606 274.165,366.825 273.162,366.604 272.871 C 366.382 272.581,365.885 271.996,365.500 271.571 C 365.115 271.147,364.804 270.707,364.808 270.594 C 364.813 270.481,364.065 269.356,363.146 268.094 C 358.374 261.537,356.244 258.800,355.916 258.800 C 355.716 258.800,355.644 258.653,355.755 258.473 C 355.866 258.293,355.517 257.671,354.979 257.090 C 354.440 256.510,354.000 255.853,354.000 255.632 C 354.000 255.410,353.625 255.027,353.166 254.782 C 352.707 254.536,352.433 254.234,352.557 254.110 C 352.680 253.986,352.291 253.296,351.691 252.576 C 351.091 251.856,349.700 250.002,348.600 248.456 C 347.500 246.910,346.405 245.635,346.167 245.623 C 345.928 245.610,345.733 245.372,345.733 245.094 C 345.733 244.417,342.829 240.400,342.339 240.400 C 342.127 240.400,342.065 240.219,342.202 239.997 C 342.339 239.776,342.169 239.486,341.825 239.354 C 341.481 239.222,341.200 238.904,341.200 238.646 C 341.200 238.389,340.696 237.626,340.079 236.951 C 339.463 236.276,339.023 235.532,339.101 235.296 C 339.180 235.061,338.874 234.750,338.422 234.607 C 337.970 234.463,337.600 234.150,337.600 233.911 C 337.600 233.671,337.150 232.886,336.600 232.164 C 336.050 231.443,335.600 230.726,335.600 230.570 C 335.600 230.414,335.076 229.786,334.436 229.174 C 333.796 228.562,333.376 227.958,333.503 227.831 C 333.629 227.704,333.523 227.600,333.267 227.600 C 333.010 227.600,332.800 227.780,332.800 228.000 C 332.800 228.220,332.629 228.400,332.419 228.400 C 332.209 228.400,332.103 227.883,332.184 227.250 C 332.289 226.414,332.018 225.760,331.187 224.850 C 330.559 224.163,330.170 223.594,330.323 223.587 C 330.475 223.580,330.319 223.355,329.975 223.087 C 329.631 222.819,329.007 222.015,328.589 221.300 C 328.170 220.585,327.686 220.000,327.514 220.000 C 327.341 220.000,327.200 219.801,327.200 219.558 C 327.200 219.315,326.737 218.565,326.171 217.893 L 325.142 216.670 328.465 215.711 C 336.484 213.396,345.522 208.703,350.178 204.437 C 355.851 199.239,361.668 192.201,360.914 191.447 C 360.778 191.311,360.898 191.200,361.180 191.200 C 361.507 191.200,361.626 190.850,361.509 190.237 C 361.396 189.643,361.493 189.336,361.762 189.438 C 362.232 189.616,364.340 185.926,364.527 184.600 C 364.588 184.160,364.849 183.419,365.105 182.953 C 365.362 182.487,365.463 181.996,365.329 181.862 C 365.195 181.729,365.307 181.353,365.577 181.027 C 365.848 180.702,365.960 180.260,365.828 180.045 C 365.695 179.831,365.770 179.542,365.993 179.404 C 366.588 179.037,366.500 177.902,365.900 178.206 C 365.625 178.345,365.749 178.176,366.176 177.830 C 366.604 177.483,366.822 177.200,366.662 177.200 C 366.503 177.200,366.540 176.885,366.746 176.500 C 366.951 176.115,367.222 174.847,367.348 173.681 C 367.473 172.516,367.706 171.346,367.865 171.081 C 368.089 170.707,368.022 170.706,367.560 171.080 C 367.076 171.471,366.956 171.416,366.908 170.780 C 366.876 170.351,367.093 170.000,367.391 170.000 C 367.820 170.000,367.928 168.918,367.910 164.811 C 367.897 161.958,367.732 159.718,367.543 159.835 C 367.010 160.165,367.139 159.021,367.700 158.456 C 368.101 158.052,368.061 158.005,367.500 158.219 C 366.738 158.509,366.522 157.819,367.238 157.377 C 367.672 157.109,367.577 155.368,366.999 153.000 C 366.838 152.340,366.655 151.350,366.593 150.800 C 366.530 150.250,366.447 149.800,366.407 149.800 C 366.367 149.800,366.247 149.264,366.141 148.610 C 366.035 147.955,365.765 147.198,365.540 146.927 C 365.315 146.657,365.264 146.219,365.427 145.956 C 365.628 145.631,365.553 145.582,365.194 145.804 C 364.816 146.037,364.733 145.952,364.904 145.505 C 365.037 145.160,365.033 144.766,364.895 144.629 C 364.758 144.492,364.586 143.987,364.513 143.507 C 364.440 143.027,364.249 142.537,364.090 142.417 C 363.930 142.298,363.742 141.930,363.672 141.600 C 363.401 140.332,361.473 136.400,361.122 136.400 C 360.919 136.400,360.847 136.247,360.963 136.061 C 361.078 135.874,360.812 135.334,360.371 134.861 C 359.930 134.387,359.677 134.000,359.810 134.000 C 359.943 134.000,359.275 132.892,358.326 131.537 C 356.374 128.751,351.671 123.748,351.146 123.900 C 350.956 123.955,350.800 123.760,350.800 123.467 C 350.800 122.975,347.951 120.400,347.407 120.400 C 347.275 120.400,346.811 120.069,346.376 119.664 C 345.623 118.962,340.480 115.821,340.019 115.781 C 339.899 115.771,338.900 115.297,337.800 114.728 C 336.700 114.160,333.820 113.028,331.400 112.214 C 326.643 110.615,326.565 110.594,323.836 110.185 C 322.826 110.033,322.000 109.741,322.000 109.535 C 322.000 109.303,321.744 109.303,321.328 109.536 C 320.860 109.798,320.478 109.735,320.070 109.327 C 319.427 108.684,317.625 108.929,317.104 109.732 C 316.882 110.074,316.696 110.038,316.415 109.600 C 316.103 109.113,314.958 109.000,310.315 109.000 C 306.972 109.000,304.476 108.834,304.300 108.600 C 304.111 108.348,303.840 108.423,303.570 108.800 C 303.245 109.252,303.089 109.277,302.936 108.900 C 302.661 108.221,240.000 108.181,240.000 108.859 C 240.000 109.174,239.847 109.171,239.462 108.851 C 238.715 108.232,210.892 108.338,210.486 108.962 M190.406 113.051 C 190.418 113.739,191.098 114.489,191.346 114.088 C 191.481 113.869,191.323 113.468,190.996 113.196 C 190.668 112.924,190.403 112.859,190.406 113.051 M190.402 117.900 C 190.401 118.790,190.589 119.200,191.000 119.200 C 191.740 119.200,191.740 119.160,191.002 117.746 L 190.405 116.600 190.402 117.900 M190.667 121.467 C 190.520 121.613,190.411 122.108,190.425 122.567 C 190.449 123.333,190.482 123.323,190.834 122.442 C 191.226 121.463,191.144 120.989,190.667 121.467 M108.800 144.464 C 92.406 144.831,89.894 145.296,85.785 148.721 C 83.148 150.918,80.152 156.650,80.471 158.887 C 80.627 159.978,81.806 160.334,81.881 159.313 C 81.929 158.668,82.219 157.308,82.417 156.800 C 82.460 156.690,82.473 156.465,82.447 156.300 C 82.421 156.135,82.580 156.000,82.800 156.000 C 83.020 156.000,83.200 155.640,83.200 155.200 C 83.200 154.760,83.341 154.400,83.514 154.400 C 83.686 154.400,84.167 153.825,84.583 153.121 C 86.115 150.527,89.418 148.434,93.800 147.281 C 97.197 146.386,144.020 145.885,143.689 146.747 C 143.521 147.184,143.646 147.204,144.313 146.847 C 145.571 146.173,146.120 146.297,145.884 147.200 C 145.769 147.639,145.838 148.100,146.038 148.223 C 146.246 148.352,146.400 156.515,146.400 167.424 L 146.400 186.400 137.700 186.409 C 90.763 186.460,91.940 186.562,87.299 182.047 C 85.351 180.151,83.391 177.854,83.506 177.600 C 83.692 177.187,82.723 174.800,82.369 174.800 C 82.166 174.800,82.021 174.665,82.047 174.500 C 82.263 173.133,81.921 171.600,81.400 171.600 C 80.711 171.600,80.588 170.578,81.229 170.182 C 81.503 170.013,81.623 168.338,81.559 165.562 C 81.503 163.168,81.579 161.088,81.727 160.940 C 81.874 160.792,81.591 160.464,81.098 160.211 C 78.316 158.784,79.213 173.241,82.253 178.827 C 84.287 182.563,88.892 186.547,91.715 187.013 C 92.642 187.165,93.580 187.430,93.800 187.600 C 95.162 188.655,146.336 189.320,147.730 188.301 C 148.691 187.598,148.831 145.860,147.875 144.904 C 147.221 144.250,128.015 144.034,108.800 144.464 M264.800 144.417 C 258.970 144.536,254.155 144.671,254.100 144.717 C 253.507 145.210,254.090 187.221,254.700 187.966 L 255.400 188.820 279.800 188.656 C 305.373 188.483,308.400 188.341,308.400 187.312 C 308.400 186.821,308.515 186.797,308.987 187.189 C 310.319 188.295,316.064 185.009,318.943 181.496 C 321.550 178.314,322.702 174.680,321.436 173.630 C 320.802 173.103,320.632 173.292,320.229 174.976 C 320.074 175.622,319.599 176.640,319.173 177.237 C 318.748 177.835,318.400 178.499,318.400 178.713 C 318.400 178.927,317.320 180.241,316.000 181.633 C 314.680 183.024,313.600 184.014,313.600 183.832 C 313.600 183.651,313.373 183.691,313.095 183.921 C 310.338 186.209,307.436 186.433,279.361 186.523 L 255.322 186.600 255.468 179.000 C 255.548 174.820,255.721 170.817,255.852 170.105 C 255.982 169.393,255.953 168.493,255.787 168.105 C 255.620 167.717,255.527 166.320,255.579 165.000 C 255.693 162.112,255.660 158.905,255.456 152.900 C 255.372 150.425,255.460 148.400,255.652 148.400 C 255.843 148.400,256.000 147.950,256.000 147.400 C 256.000 146.521,256.172 146.400,257.418 146.400 C 258.535 146.400,258.810 146.255,258.718 145.715 C 258.647 145.304,258.904 144.967,259.357 144.874 C 259.955 144.752,260.069 144.895,259.897 145.550 L 259.680 146.381 280.340 146.424 C 305.028 146.476,311.200 146.800,311.200 148.043 C 311.200 148.239,311.571 148.400,312.024 148.400 C 312.913 148.400,316.800 150.774,316.800 151.317 C 316.800 151.499,316.980 151.536,317.200 151.400 C 317.420 151.264,317.600 151.427,317.600 151.763 C 317.600 152.098,318.140 152.925,318.800 153.600 C 319.460 154.275,320.000 155.181,320.000 155.614 C 320.000 156.046,320.180 156.400,320.400 156.400 C 320.620 156.400,320.800 156.951,320.800 157.624 C 320.800 158.297,320.954 158.752,321.142 158.636 C 321.330 158.519,321.400 158.914,321.296 159.512 C 321.113 160.568,321.126 160.576,321.741 159.800 C 322.292 159.104,322.376 159.088,322.387 159.680 C 322.394 160.054,322.175 160.504,321.900 160.680 C 321.550 160.904,321.400 162.317,321.400 165.400 C 321.400 168.483,321.550 169.896,321.900 170.120 C 322.576 170.552,322.536 171.600,321.843 171.600 C 320.943 171.600,320.793 172.669,321.590 173.391 C 324.453 175.982,324.116 159.823,321.180 153.758 C 319.385 150.050,313.768 145.600,310.883 145.600 C 310.423 145.600,309.929 145.408,309.784 145.174 C 309.635 144.933,308.451 144.780,307.060 144.822 C 305.707 144.863,304.150 144.783,303.600 144.645 C 302.222 144.297,277.694 144.153,264.800 144.417 M190.634 146.745 C 190.194 147.457,190.525 149.867,191.062 149.867 C 191.659 149.867,191.785 149.361,191.267 149.041 C 191.083 148.928,191.014 148.287,191.112 147.618 C 191.286 146.436,191.069 146.041,190.634 146.745 M190.438 160.317 C 189.947 161.195,189.667 160.385,189.913 158.800 L 190.131 157.400 190.449 158.566 C 190.623 159.207,190.619 159.995,190.438 160.317 M190.400 170.400 C 190.400 170.840,190.580 171.200,190.800 171.200 C 191.020 171.200,191.200 170.840,191.200 170.400 C 191.200 169.960,191.020 169.600,190.800 169.600 C 190.580 169.600,190.400 169.960,190.400 170.400 M190.632 195.548 C 190.509 195.747,190.677 196.132,191.004 196.404 C 191.489 196.806,191.600 196.781,191.600 196.273 C 191.600 195.526,190.948 195.038,190.632 195.548 M190.425 198.380 C 190.408 199.327,190.529 199.631,190.812 199.348 C 191.085 199.075,191.094 198.609,190.838 197.968 C 190.474 197.058,190.449 197.083,190.425 198.380 M190.679 219.337 C 190.552 219.670,190.707 220.157,191.024 220.420 C 191.690 220.973,191.841 220.200,191.250 219.266 C 190.975 218.833,190.868 218.846,190.679 219.337 M124.667 222.065 C 124.264 222.291,123.591 222.386,123.171 222.276 C 122.359 222.064,121.749 222.698,119.200 226.408 C 118.430 227.528,117.080 229.415,116.200 230.600 C 114.701 232.619,112.728 235.323,109.122 240.300 C 105.768 244.928,104.211 247.064,103.218 248.400 C 102.645 249.170,101.841 250.340,101.431 251.000 C 101.020 251.660,100.356 252.517,99.954 252.905 C 99.552 253.292,98.503 254.642,97.622 255.905 C 96.741 257.167,95.206 259.332,94.210 260.715 C 93.215 262.098,92.400 263.403,92.400 263.615 C 92.400 263.827,92.218 264.000,91.995 264.000 C 91.772 264.000,90.928 265.035,90.119 266.300 C 89.310 267.565,86.433 271.570,83.725 275.200 C 78.574 282.106,77.632 283.373,74.544 287.549 C 73.507 288.951,72.136 290.416,71.496 290.804 C 70.733 291.269,70.517 291.578,70.867 291.706 C 71.173 291.818,70.932 292.026,70.300 292.194 C 68.616 292.642,68.990 293.133,71.015 293.133 C 73.009 293.133,74.060 292.365,75.031 290.200 C 75.327 289.540,75.577 289.180,75.587 289.400 C 75.597 289.620,75.954 289.271,76.380 288.625 C 76.806 287.979,77.061 287.299,76.947 287.115 C 76.834 286.931,76.916 286.830,77.131 286.890 C 77.346 286.951,78.881 285.110,80.544 282.800 C 82.206 280.490,83.709 278.416,83.883 278.192 C 86.586 274.709,88.079 272.683,89.034 271.200 C 89.671 270.210,90.284 269.310,90.396 269.200 C 91.127 268.483,94.400 263.931,94.400 263.633 C 94.400 263.431,94.550 263.207,94.733 263.133 C 95.103 262.985,99.728 256.800,99.469 256.800 C 99.379 256.800,99.920 256.148,100.671 255.352 C 101.422 254.555,101.958 253.824,101.861 253.727 C 101.763 253.630,102.129 253.070,102.673 252.483 C 103.716 251.358,107.652 245.979,108.988 243.854 C 109.421 243.164,110.096 242.251,110.488 241.825 C 110.880 241.398,111.200 240.911,111.200 240.743 C 111.200 240.574,111.605 240.006,112.100 239.481 C 112.595 238.955,113.630 237.592,114.400 236.450 C 115.170 235.309,115.984 234.156,116.209 233.888 C 116.435 233.619,117.855 231.690,119.365 229.600 C 120.876 227.510,122.576 225.299,123.144 224.686 L 124.177 223.571 128.789 223.847 C 134.187 224.169,135.475 224.170,139.900 223.854 C 141.715 223.724,143.200 223.777,143.200 223.970 C 143.200 224.163,143.767 224.519,144.460 224.761 C 146.098 225.332,146.195 225.317,145.592 224.590 C 144.947 223.813,145.275 223.449,146.029 224.104 C 146.518 224.529,146.571 229.366,146.400 257.800 C 146.200 290.982,146.263 292.938,147.497 291.926 C 148.056 291.468,148.110 291.510,147.919 292.253 C 147.704 293.087,147.797 293.106,151.950 293.053 L 156.200 293.000 156.200 292.000 C 156.200 291.020,156.131 290.998,152.800 290.892 C 150.930 290.833,149.208 290.716,148.973 290.633 C 148.676 290.527,148.533 280.135,148.500 256.401 C 148.475 237.656,148.337 222.203,148.194 222.060 C 147.744 221.610,125.470 221.614,124.667 222.065 M255.500 221.913 L 254.000 222.048 254.000 256.417 L 254.000 290.785 252.985 291.039 C 252.427 291.180,251.437 291.187,250.785 291.057 C 248.675 290.635,247.043 291.163,247.816 292.018 C 248.411 292.675,248.404 292.742,247.730 292.896 C 247.329 292.988,248.710 293.076,250.800 293.093 C 256.406 293.139,255.804 297.429,255.776 257.628 C 255.763 238.692,255.853 223.340,255.976 223.512 C 256.099 223.684,259.620 223.809,263.800 223.788 C 267.980 223.768,272.036 223.866,272.814 224.006 C 273.592 224.146,275.302 224.140,276.614 223.992 C 278.185 223.815,279.100 223.873,279.294 224.161 C 279.467 224.420,279.595 224.435,279.606 224.200 C 279.616 223.980,279.810 224.119,280.037 224.508 C 280.264 224.898,280.623 225.110,280.834 224.979 C 281.046 224.848,281.170 224.913,281.110 225.124 C 280.990 225.543,282.866 228.335,284.300 229.872 C 284.795 230.402,285.200 231.008,285.200 231.218 C 285.200 231.428,285.380 231.600,285.600 231.600 C 285.820 231.600,286.000 231.876,286.000 232.213 C 286.000 232.549,286.269 232.928,286.598 233.054 C 286.926 233.181,287.112 233.419,287.009 233.585 C 286.615 234.223,290.888 239.357,291.417 238.881 C 291.588 238.726,291.584 238.850,291.407 239.155 C 291.194 239.522,291.409 239.974,292.042 240.490 C 292.569 240.919,292.744 241.134,292.432 240.969 C 292.073 240.779,292.146 241.045,292.632 241.692 C 293.223 242.480,293.561 242.630,294.100 242.344 C 294.556 242.102,294.800 242.116,294.800 242.386 C 294.800 242.614,294.620 242.800,294.400 242.800 C 293.684 242.800,293.978 243.859,295.000 244.962 C 295.550 245.556,296.000 246.203,296.000 246.401 C 296.000 246.598,296.230 246.904,296.510 247.080 C 296.791 247.256,297.460 248.244,297.997 249.276 C 298.534 250.308,299.339 251.265,299.787 251.403 C 300.356 251.578,300.438 251.720,300.061 251.873 C 299.674 252.031,299.848 252.390,300.682 253.151 C 301.320 253.734,301.945 254.478,302.071 254.805 C 302.198 255.132,303.493 256.998,304.950 258.951 C 306.408 260.904,307.600 262.820,307.600 263.208 C 307.600 263.630,308.009 264.016,308.616 264.168 C 309.175 264.309,309.540 264.574,309.426 264.757 C 309.313 264.941,309.936 265.843,310.810 266.762 C 311.685 267.682,312.400 268.662,312.400 268.941 C 312.400 269.221,312.729 269.802,313.130 270.233 C 313.532 270.664,313.803 271.193,313.732 271.409 C 313.661 271.624,314.129 272.153,314.773 272.584 C 315.417 273.015,315.855 273.510,315.748 273.684 C 315.641 273.858,315.710 274.000,315.902 274.000 C 316.094 274.000,316.497 274.627,316.798 275.394 C 317.099 276.161,317.428 276.706,317.529 276.605 C 317.630 276.504,318.229 277.236,318.861 278.231 C 319.559 279.333,320.188 279.931,320.466 279.759 C 320.718 279.604,320.819 279.646,320.690 279.854 C 320.479 280.195,322.416 283.473,323.133 283.988 C 323.295 284.105,324.502 285.796,325.814 287.746 C 329.495 293.216,329.474 293.200,332.781 293.200 C 334.331 293.200,335.600 293.060,335.600 292.889 C 335.600 292.719,334.845 292.651,333.922 292.739 C 332.374 292.887,332.294 292.849,332.893 292.249 C 333.251 291.892,333.871 291.578,334.271 291.550 C 334.672 291.523,334.030 291.359,332.844 291.187 C 330.544 290.853,330.102 290.488,327.527 286.800 C 326.836 285.810,325.310 283.708,324.135 282.130 C 322.961 280.551,322.000 279.172,322.000 279.066 C 322.000 278.959,320.875 277.344,319.500 275.476 C 318.125 273.608,316.047 270.757,314.882 269.140 C 312.887 266.370,307.858 259.449,304.608 255.000 C 302.846 252.590,294.366 240.676,292.386 237.832 C 291.608 236.714,289.899 234.360,288.589 232.600 C 287.278 230.840,285.569 228.467,284.790 227.326 C 282.461 223.911,280.949 222.436,280.025 222.678 C 279.505 222.814,279.122 222.662,278.968 222.261 C 278.739 221.665,261.132 221.404,255.500 221.913 M190.678 250.655 C 190.133 251.200,190.383 253.908,191.000 254.145 C 191.667 254.401,191.830 253.789,191.199 253.399 C 190.932 253.235,190.938 252.889,191.216 252.370 C 191.644 251.571,191.194 250.139,190.678 250.655 M190.406 260.300 C 190.418 261.630,191.075 262.118,191.112 260.824 C 191.131 260.151,190.979 259.600,190.773 259.600 C 190.568 259.600,190.403 259.915,190.406 260.300 M190.346 265.373 C 189.821 265.962,189.650 265.504,189.909 264.200 C 190.147 263.004,190.149 263.004,190.413 264.000 C 190.559 264.550,190.529 265.168,190.346 265.373 M190.813 273.176 C 190.537 273.692,190.532 274.034,190.799 274.199 C 191.267 274.488,191.273 274.479,191.396 273.300 C 191.512 272.196,191.355 272.163,190.813 273.176 M190.400 277.000 C 190.400 277.330,190.580 277.600,190.800 277.600 C 191.020 277.600,191.200 277.330,191.200 277.000 C 191.200 276.670,191.020 276.400,190.800 276.400 C 190.580 276.400,190.400 276.670,190.400 277.000 M190.400 288.557 C 190.400 289.084,190.670 289.618,191.000 289.745 C 191.656 289.996,191.835 289.392,191.217 289.011 C 191.007 288.881,190.936 288.510,191.060 288.187 C 191.184 287.864,191.086 287.600,190.843 287.600 C 190.599 287.600,190.400 288.031,190.400 288.557 M24.668 288.300 C 22.716 291.559,22.564 292.394,23.924 292.406 C 24.507 292.411,24.517 292.466,24.000 292.804 C 23.345 293.231,44.078 293.246,44.770 292.819 C 44.982 292.688,45.103 292.225,45.039 291.790 C 44.928 291.030,44.554 290.998,35.362 290.941 L 25.800 290.883 25.757 289.941 C 25.679 288.266,25.606 288.000,25.224 288.000 C 25.017 288.000,24.766 288.135,24.668 288.300 M46.400 291.724 C 46.400 292.274,46.692 292.827,47.057 292.967 C 47.981 293.321,48.214 292.940,47.557 292.148 C 47.251 291.779,47.059 291.374,47.130 291.249 C 47.202 291.123,47.067 290.955,46.830 290.877 C 46.594 290.798,46.400 291.179,46.400 291.724 M62.280 291.053 C 61.595 291.739,62.008 292.855,62.900 292.728 C 63.488 292.644,63.800 292.325,63.800 291.805 C 63.800 291.012,62.811 290.522,62.280 291.053 M65.726 291.560 C 65.606 292.022,65.348 292.400,65.153 292.400 C 63.944 292.400,65.097 293.042,66.400 293.094 C 67.280 293.129,68.000 292.987,68.000 292.779 C 68.000 292.570,67.730 292.400,67.400 292.400 C 67.070 292.400,66.800 292.141,66.800 291.824 C 66.800 290.865,65.962 290.659,65.726 291.560 M159.091 291.066 C 158.292 292.417,159.561 293.143,162.564 293.051 C 165.862 292.950,165.863 292.950,166.062 291.809 C 166.208 290.970,159.567 290.263,159.091 291.066 M180.657 291.400 C 179.979 292.078,179.425 292.207,179.800 291.600 C 179.936 291.380,179.677 291.200,179.224 291.200 C 177.714 291.200,178.193 292.725,179.797 293.026 C 181.943 293.428,183.200 292.973,183.200 291.792 C 183.200 290.625,181.668 290.389,180.657 291.400 M215.094 291.039 C 214.788 291.346,215.213 292.512,215.771 292.894 C 216.413 293.334,218.800 293.260,218.800 292.800 C 218.800 292.580,218.281 292.400,217.647 292.400 C 216.830 292.400,216.432 292.167,216.284 291.600 C 216.078 290.813,215.563 290.570,215.094 291.039 M220.197 291.375 C 220.089 291.719,219.930 292.233,219.844 292.517 C 219.738 292.871,220.179 293.053,221.244 293.096 C 222.100 293.130,222.800 292.987,222.800 292.779 C 222.800 292.570,222.440 292.400,222.000 292.400 C 221.560 292.400,221.200 292.141,221.200 291.824 C 221.200 290.985,220.429 290.640,220.197 291.375 M229.021 291.300 C 228.572 292.758,228.918 293.024,231.416 293.136 C 233.798 293.243,233.906 293.206,234.093 292.224 C 234.279 291.252,234.200 291.200,232.545 291.200 C 230.384 291.200,229.966 292.370,232.100 292.446 C 232.837 292.473,233.083 292.575,232.668 292.682 C 231.387 293.013,230.000 292.446,230.000 291.592 C 230.000 290.722,229.266 290.503,229.021 291.300 M239.200 291.757 C 239.200 292.284,239.485 292.824,239.833 292.957 C 240.825 293.338,242.400 293.242,242.400 292.800 C 242.400 292.580,241.931 292.400,241.357 292.400 C 240.622 292.400,240.379 292.233,240.532 291.833 C 240.652 291.521,240.476 291.161,240.142 291.033 C 239.240 290.687,239.200 290.717,239.200 291.757 M344.800 291.090 C 344.470 291.215,344.056 291.561,343.880 291.859 C 343.704 292.156,343.119 292.400,342.580 292.400 C 342.041 292.400,341.600 292.574,341.600 292.788 C 341.600 293.201,349.539 293.326,351.100 292.937 C 351.972 292.720,352.357 291.468,351.681 291.050 C 351.318 290.826,350.314 291.357,350.366 291.745 C 350.468 292.505,350.249 292.594,348.600 292.463 C 347.469 292.373,346.800 292.127,346.800 291.803 C 346.800 291.399,345.804 290.673,345.467 290.832 C 345.430 290.849,345.130 290.965,344.800 291.090 M352.801 291.133 C 352.581 291.207,352.400 291.612,352.400 292.033 C 352.400 292.789,352.517 292.825,355.500 292.967 C 355.989 292.990,356.200 292.698,356.200 292.000 C 356.200 291.036,354.442 290.588,352.801 291.133 M170.400 291.800 C 170.400 292.130,170.580 292.400,170.800 292.400 C 171.020 292.400,171.200 292.130,171.200 291.800 C 171.200 291.470,171.020 291.200,170.800 291.200 C 170.580 291.200,170.400 291.470,170.400 291.800 M245.355 292.095 C 245.381 292.621,245.702 293.047,246.133 293.130 C 246.754 293.250,246.800 293.148,246.436 292.468 C 246.116 291.869,246.133 291.613,246.503 291.464 C 246.776 291.353,246.620 291.249,246.155 291.232 C 245.524 291.208,245.321 291.427,245.355 292.095 M339.884 292.000 C 340.013 292.493,339.896 292.800,339.580 292.800 C 339.298 292.800,339.173 292.906,339.303 293.037 C 339.433 293.167,339.913 293.154,340.370 293.010 C 341.436 292.671,341.491 291.200,340.437 291.200 C 339.872 291.200,339.729 291.407,339.884 292.000 M49.200 292.600 C 49.200 293.000,49.600 293.200,50.400 293.200 C 51.060 293.200,51.600 293.009,51.600 292.776 C 51.600 292.543,51.432 292.456,51.228 292.583 C 51.023 292.709,50.742 292.630,50.604 292.407 C 50.219 291.783,49.200 291.924,49.200 292.600 M57.200 292.323 C 53.591 292.525,53.838 293.200,57.520 293.200 C 59.324 293.200,60.800 293.041,60.800 292.847 C 60.800 292.340,59.717 292.182,57.200 292.323 M359.900 292.314 C 358.189 292.668,359.449 293.200,362.000 293.200 C 364.743 293.200,366.122 292.434,363.500 292.367 C 362.785 292.348,361.840 292.296,361.400 292.251 C 360.960 292.206,360.285 292.234,359.900 292.314 M166.800 292.800 C 166.800 293.024,167.815 293.188,169.100 293.172 C 170.755 293.152,171.176 293.047,170.600 292.800 C 169.478 292.318,166.800 292.318,166.800 292.800 M172.000 292.800 C 172.000 293.020,172.900 293.200,174.000 293.200 C 175.100 293.200,176.000 293.020,176.000 292.800 C 176.000 292.580,175.100 292.400,174.000 292.400 C 172.900 292.400,172.000 292.580,172.000 292.800 M223.600 292.800 C 223.600 293.021,224.540 293.182,225.700 293.160 C 227.352 293.129,227.587 293.052,226.800 292.800 C 225.350 292.336,223.600 292.336,223.600 292.800 M235.600 292.800 C 235.600 293.020,236.230 293.200,237.000 293.200 C 237.770 293.200,238.400 293.020,238.400 292.800 C 238.400 292.580,237.770 292.400,237.000 292.400 C 236.230 292.400,235.600 292.580,235.600 292.800 " stroke="none" fill="#BFFF00" fill-rule="evenodd"></path></g></svg>